<?xml version="1.0" standalone="no"?><!DOCTYPE svg PUBLIC "-//W3C//DTD SVG 1.1//EN" "http://www.w3.org/Graphics/SVG/1.1/DTD/svg11.dtd"><svg t="1655635417519" class="icon" viewBox="0 0 1156 1024" version="1.1" xmlns="http://www.w3.org/2000/svg" p-id="2191" xmlns:xlink="http://www.w3.org/1999/xlink" width="225.78125" height="200"><defs><style type="text/css">@font-face { font-family: feedback-iconfont; src: url("//at.alicdn.com/t/font_1031158_u69w8yhxdu.woff2?t=1630033759944") format("woff2"), url("//at.alicdn.com/t/font_1031158_u69w8yhxdu.woff?t=1630033759944") format("woff"), url("//at.alicdn.com/t/font_1031158_u69w8yhxdu.ttf?t=1630033759944") format("truetype"); }
</style></defs><path d="M286.758182 4.429255A32.176129 32.176129 0 0 1 317.135325 3.349864l2.004584 1.079391 275.09048 158.82466a32.227528 32.227528 0 0 1 15.985265 25.699784v322.48088a32.124729 32.124729 0 0 1-13.004091 25.699783l-1.798984 1.284989-151.937119 97.659177a32.176129 32.176129 0 0 1-36.493692-52.941554l1.747585-1.233589 137.082644-87.996058V209.719124L303.154643 69.501106 64.352257 209.564925v284.548l133.279076 87.996058a32.176129 32.176129 0 0 1 10.279914 42.764439l-1.130791 1.798985a32.176129 32.176129 0 0 1-42.764439 10.279914l-1.798985-1.130791-147.722354-97.659176a32.07333 32.07333 0 0 1-14.391879-24.671792V191.16388A32.124729 32.124729 0 0 1 14.083481 164.590304l1.901784-1.18219z" fill="#2E3E8D" p-id="2192"></path><path d="M832.724377 4.429255a32.07333 32.07333 0 0 1 30.325745-1.18219l2.31298 1.18219 275.09048 158.82466a32.227528 32.227528 0 0 1 15.985265 25.699784v322.48088a32.124729 32.124729 0 0 1-13.00409 25.699783l-1.798985 1.284989-151.937119 97.659177a32.176129 32.176129 0 0 1-36.493692-52.941554l1.747586-1.233589 137.082643-87.996058V209.719124L849.120839 69.501106l-254.736252 149.41854a32.227528 32.227528 0 0 1-42.918638-9.714518l-1.13079-1.798985a32.176129 32.176129 0 0 1 9.714518-42.867238l1.798985-1.130791z m-281.464026 489.272474a32.176129 32.176129 0 0 1 42.764439-10.279914l1.850385 1.079391 147.722354 97.659177a32.176129 32.176129 0 0 1-33.666716 54.791938l-1.798985-1.130791-147.722354-97.659176a32.124729 32.124729 0 0 1-9.149123-44.563425z" fill="#2E3E8D" p-id="2193"></path><path d="M676.521095 397.276142a32.227528 32.227528 0 0 1 42.815839-10.279913l1.798984 1.13079 147.722355 97.659176a32.227528 32.227528 0 0 1 14.340479 24.723192v322.48088a32.227528 32.227528 0 0 1-13.980682 26.522177l-1.953184 1.233589-270.875716 158.824661a32.07333 32.07333 0 0 1-30.325744 1.18219l-2.055982-1.027992-274.936282-158.87606a32.278928 32.278928 0 0 1-16.036665-25.699783V512.719568a32.02193 32.02193 0 0 1 13.004091-25.699783l1.798985-1.23359 151.885719-97.659176a32.176129 32.176129 0 0 1 36.493692 52.941553l-1.747585 1.23359-137.134044 87.944658v284.136804l242.760153 140.218018 239.007984-140.063819v-284.548l-133.638873-88.150257a32.124729 32.124729 0 0 1-10.279913-42.764439l1.079391-1.798985z" fill="#2E3E8D" p-id="2194"></path></svg>